<svg xmlns="http://www.w3.org/2000/svg" viewBox="0 0 1024 1024" width="1024" height="1024">
  <rect width="1024" height="1024" rx="228" fill="#0B1220"/>
  <g transform="translate(512, 512) scale(5.69)">
    <path d="M -18,-58 C -6,-58 6,-52 14,-40 C 20,-28 22,-14 20,2 C 18,16 12,30 4,42 C -2,52 -10,58 -18,60 C -22,56 -22,48 -18,40 C -10,30 -4,20 0,8 C 2,-4 0,-16 -6,-26 C -14,-38 -22,-46 -26,-52 C -26,-56 -22,-58 -18,-58 Z" fill="#5B9DF9"/>
    <path d="M 4,-12 C 18,-20 32,-32 44,-46 C 48,-50 52,-48 50,-42 C 44,-28 34,-14 22,-2 C 14,6 4,12 -4,14 C -8,10 -6,2 4,-12 Z" fill="#5B9DF9"/>
    <circle cx="-18" cy="-46" r="3.2" fill="#0B1220"/>
  </g>
</svg>
